<svg width="390" height="309" viewBox="0 0 390 309" fill="none" xmlns="http://www.w3.org/2000/svg">
<path d="M390 224.361C304.259 247.038 267.727 309 168.654 309C69.5811 309 90.8184 115.539 16.023 163.904C-20.4627 115.377 150.458 0 249.531 0C313.38 118.064 390 111.58 390 224.361Z" fill="#636363"/>
<path d="M79.3308 44.2702H56.5006C54.3057 44.2722 52.2012 45.145 50.6492 46.697C49.0972 48.249 48.2244 50.3535 48.2224 52.5484V77.3001C47.9305 77.2826 47.6386 77.2565 47.351 77.2216C41.9423 76.6526 36.8001 74.5839 32.5043 71.2488C28.2084 67.9136 24.9296 63.4447 23.0377 58.3459C21.1457 53.247 20.7158 47.7211 21.7964 42.391C22.877 37.0608 25.4251 32.1386 29.1535 28.1792C32.8818 24.2198 37.6422 21.3807 42.8978 19.9819C48.1534 18.5832 53.6952 18.6805 58.8985 20.2629C64.1017 21.8452 68.7594 24.8497 72.3465 28.9375C75.9336 33.0254 78.3074 38.034 79.2002 43.3988C79.2481 43.6863 79.2917 43.9783 79.3308 44.2702Z" fill="#F2F2F2"/>
<path d="M348.851 43.3987H56.5006C54.0748 43.4013 51.7492 44.3662 50.0339 46.0815C48.3186 47.7968 47.3537 50.1224 47.3511 52.5482V206.784C47.3537 209.209 48.3186 211.535 50.0339 213.25C51.7492 214.966 54.0748 215.93 56.5006 215.933H348.851C351.276 215.93 353.602 214.966 355.317 213.25C357.033 211.535 357.997 209.209 358 206.784V52.5482C357.997 50.1224 357.033 47.7968 355.317 46.0815C353.602 44.3662 351.276 43.4013 348.851 43.3987ZM357.129 206.784C357.127 208.978 356.254 211.083 354.702 212.635C353.15 214.187 351.045 215.06 348.851 215.062H56.5006C54.3057 215.06 52.2013 214.187 50.6493 212.635C49.0972 211.083 48.2244 208.978 48.2225 206.784V52.5482C48.2244 50.3533 49.0972 48.2489 50.6493 46.6969C52.2013 45.1449 54.3057 44.2721 56.5006 44.2701H348.851C351.045 44.2721 353.15 45.1449 354.702 46.6969C356.254 48.2489 357.127 50.3533 357.129 52.5482V206.784Z" fill="#3F3D56"/>
<path d="M334.473 68.3943H70.8783C70.7628 68.3943 70.652 68.3484 70.5702 68.2667C70.4885 68.185 70.4426 68.0742 70.4426 67.9586C70.4426 67.8431 70.4885 67.7323 70.5702 67.6506C70.652 67.5689 70.7628 67.5229 70.8783 67.5229H334.473C334.588 67.5229 334.699 67.5689 334.781 67.6506C334.862 67.7323 334.908 67.8431 334.908 67.9586C334.908 68.0742 334.862 68.185 334.781 68.2667C334.699 68.3484 334.588 68.3943 334.473 68.3943Z" fill="#3F3D56"/>
<path d="M145.382 197.198C145.266 197.198 145.156 197.153 145.074 197.071C144.992 196.989 144.946 196.878 144.946 196.763V53.4198C144.946 53.3043 144.992 53.1935 145.074 53.1117C145.156 53.03 145.266 52.9841 145.382 52.9841C145.498 52.9841 145.608 53.03 145.69 53.1117C145.772 53.1935 145.818 53.3043 145.818 53.4198V196.763C145.818 196.878 145.772 196.989 145.69 197.071C145.608 197.153 145.498 197.198 145.382 197.198Z" fill="#3F3D56"/>
<path d="M211.172 197.198C211.056 197.198 210.945 197.153 210.863 197.071C210.782 196.989 210.736 196.878 210.736 196.763V53.4198C210.736 53.3043 210.782 53.1935 210.863 53.1117C210.945 53.03 211.056 52.9841 211.172 52.9841C211.287 52.9841 211.398 53.03 211.48 53.1117C211.561 53.1935 211.607 53.3043 211.607 53.4198V196.763C211.607 196.878 211.561 196.989 211.48 197.071C211.398 197.153 211.287 197.198 211.172 197.198Z" fill="#3F3D56"/>
<path d="M276.961 197.198C276.846 197.198 276.735 197.153 276.653 197.071C276.571 196.989 276.525 196.878 276.525 196.763V53.4198C276.525 53.3043 276.571 53.1935 276.653 53.1117C276.735 53.03 276.846 52.9841 276.961 52.9841C277.077 52.9841 277.187 53.03 277.269 53.1117C277.351 53.1935 277.397 53.3043 277.397 53.4198V196.763C277.397 196.878 277.351 196.989 277.269 197.071C277.187 197.153 277.077 197.198 276.961 197.198Z" fill="#3F3D56"/>
<path d="M103.083 113.366H87.1628C86.643 113.365 86.1446 113.158 85.777 112.791C85.4095 112.423 85.2027 111.925 85.2021 111.405V92.6181C85.2027 92.0983 85.4095 91.5999 85.777 91.2323C86.1446 90.8648 86.643 90.658 87.1628 90.6575H103.083C103.603 90.658 104.101 90.8648 104.469 91.2323C104.836 91.5999 105.043 92.0983 105.044 92.6181V111.405C105.043 111.925 104.836 112.423 104.469 112.791C104.101 113.158 103.603 113.365 103.083 113.366Z" fill="#ACBF40"/>
<path d="M125.739 166.956H109.819C109.299 166.955 108.801 166.748 108.433 166.381C108.065 166.013 107.859 165.515 107.858 164.995V146.208C107.859 145.688 108.065 145.19 108.433 144.822C108.801 144.455 109.299 144.248 109.819 144.248H125.739C126.259 144.248 126.757 144.455 127.125 144.822C127.492 145.19 127.699 145.688 127.7 146.208V164.995C127.699 165.515 127.492 166.013 127.125 166.381C126.757 166.748 126.259 166.955 125.739 166.956Z" fill="#ACBF40"/>
<path d="M177.151 124.693H161.231C160.711 124.693 160.212 124.486 159.845 124.119C159.477 123.751 159.271 123.253 159.27 122.733V103.946C159.271 103.426 159.477 102.928 159.845 102.56C160.212 102.193 160.711 101.986 161.231 101.985H177.151C177.671 101.986 178.169 102.193 178.537 102.56C178.904 102.928 179.111 103.426 179.111 103.946V122.733C179.111 123.253 178.904 123.751 178.537 124.119C178.169 124.486 177.671 124.693 177.151 124.693Z" fill="#ACBF40"/>
<path d="M243.812 104.216H227.892C227.372 104.215 226.874 104.009 226.506 103.641C226.138 103.273 225.932 102.775 225.931 102.255V83.4684C225.932 82.9486 226.138 82.4503 226.506 82.0827C226.874 81.7151 227.372 81.5084 227.892 81.5078H243.812C244.332 81.5084 244.83 81.7151 245.198 82.0827C245.565 82.4503 245.772 82.9486 245.773 83.4684V102.255C245.772 102.775 245.565 103.274 245.198 103.641C244.83 104.009 244.332 104.215 243.812 104.216Z" fill="#ACBF40"/>
<path d="M305.245 104.216H289.324C288.805 104.215 288.306 104.009 287.939 103.641C287.571 103.273 287.364 102.775 287.364 102.255V83.4684C287.364 82.9486 287.571 82.4503 287.939 82.0827C288.306 81.7151 288.805 81.5084 289.324 81.5078H305.245C305.764 81.5084 306.263 81.7151 306.63 82.0827C306.998 82.4503 307.205 82.9486 307.205 83.4684V102.255C307.205 102.775 306.998 103.274 306.63 103.641C306.263 104.009 305.764 104.215 305.245 104.216Z" fill="#ACBF40"/>
<path d="M333.564 109.444H317.644C317.124 109.444 316.626 109.237 316.258 108.87C315.891 108.502 315.684 108.004 315.684 107.484V88.6969C315.684 88.1771 315.891 87.6788 316.258 87.3112C316.626 86.9437 317.124 86.7369 317.644 86.7363H333.564C334.084 86.7369 334.583 86.9437 334.95 87.3112C335.318 87.6788 335.524 88.1771 335.525 88.6969V107.484C335.524 108.004 335.318 108.502 334.95 108.87C334.583 109.237 334.084 109.444 333.564 109.444Z" fill="#E6E6E6"/>
<path d="M320.93 142.993H305.009C304.49 142.992 303.991 142.785 303.624 142.418C303.256 142.05 303.049 141.552 303.049 141.032V122.245C303.049 121.725 303.256 121.227 303.624 120.86C303.991 120.492 304.49 120.285 305.009 120.285H320.93C321.449 120.285 321.948 120.492 322.315 120.86C322.683 121.227 322.89 121.725 322.89 122.245V141.032C322.89 141.552 322.683 142.05 322.315 142.418C321.948 142.785 321.449 142.992 320.93 142.993Z" fill="#E6E6E6"/>
<path d="M266.904 136.022H250.984C250.464 136.021 249.965 135.814 249.598 135.447C249.23 135.079 249.024 134.581 249.023 134.061V115.274C249.024 114.754 249.23 114.256 249.598 113.888C249.965 113.521 250.464 113.314 250.984 113.313H266.904C267.424 113.314 267.922 113.521 268.289 113.888C268.657 114.256 268.864 114.754 268.864 115.274V134.061C268.864 134.581 268.657 135.079 268.289 135.447C267.922 135.814 267.424 136.021 266.904 136.022Z" fill="#FF6584"/>
<path d="M235.969 142.993H220.049C219.529 142.992 219.031 142.785 218.663 142.418C218.296 142.05 218.089 141.552 218.088 141.032V122.245C218.089 121.725 218.296 121.227 218.663 120.86C219.031 120.492 219.529 120.285 220.049 120.285H235.969C236.489 120.285 236.987 120.492 237.355 120.86C237.722 121.227 237.929 121.725 237.93 122.245V141.032C237.929 141.552 237.722 142.05 237.355 142.418C236.987 142.785 236.489 142.992 235.969 142.993Z" fill="#E6E6E6"/>
<path d="M169.308 172.62H153.388C152.868 172.619 152.37 172.412 152.002 172.045C151.635 171.677 151.428 171.179 151.427 170.659V151.872C151.428 151.352 151.635 150.854 152.002 150.487C152.37 150.119 152.868 149.912 153.388 149.912H169.308C169.828 149.912 170.326 150.119 170.694 150.487C171.062 150.854 171.268 151.352 171.269 151.872V170.659C171.268 171.179 171.062 171.677 170.694 172.045C170.326 172.412 169.828 172.619 169.308 172.62Z" fill="#E6E6E6"/>
<path d="M88.7053 147.785H72.7851C72.2653 147.785 71.7669 147.578 71.3994 147.21C71.0318 146.843 70.825 146.344 70.8245 145.825V127.038C70.825 126.518 71.0318 126.02 71.3994 125.652C71.7669 125.284 72.2653 125.078 72.7851 125.077H88.7053C89.2251 125.078 89.7235 125.284 90.091 125.652C90.4586 126.02 90.6653 126.518 90.6659 127.038V145.825C90.6653 146.344 90.4586 146.843 90.091 147.21C89.7235 147.578 89.2251 147.785 88.7053 147.785Z" fill="#FF6584"/>
<path d="M133.582 113.366H117.661C117.141 113.365 116.643 113.158 116.276 112.791C115.908 112.423 115.701 111.925 115.701 111.405V92.6181C115.701 92.0983 115.908 91.5999 116.276 91.2323C116.643 90.8648 117.141 90.658 117.661 90.6575H133.582C134.101 90.658 134.6 90.8648 134.967 91.2323C135.335 91.5999 135.542 92.0983 135.542 92.6181V111.405C135.542 111.925 135.335 112.423 134.967 112.791C134.6 113.158 134.101 113.365 133.582 113.366Z" fill="#E6E6E6"/>
<path d="M120.547 61.2622H95.713C95.2508 61.2622 94.8075 61.0785 94.4807 60.7517C94.1538 60.4249 93.9702 59.9816 93.9702 59.5194C93.9702 59.0572 94.1538 58.6139 94.4807 58.2871C94.8075 57.9602 95.2508 57.7766 95.713 57.7766H120.547C121.01 57.7766 121.453 57.9602 121.78 58.2871C122.107 58.6139 122.29 59.0572 122.29 59.5194C122.29 59.9816 122.107 60.4249 121.78 60.7517C121.453 61.0785 121.01 61.2622 120.547 61.2622Z" fill="#CCCCCC"/>
<path d="M190.694 61.2622H165.859C165.397 61.2622 164.954 61.0785 164.627 60.7517C164.3 60.4249 164.117 59.9816 164.117 59.5194C164.117 59.0572 164.3 58.6139 164.627 58.2871C164.954 57.9602 165.397 57.7766 165.859 57.7766H190.694C191.156 57.7766 191.599 57.9602 191.926 58.2871C192.253 58.6139 192.437 59.0572 192.437 59.5194C192.437 59.9816 192.253 60.4249 191.926 60.7517C191.599 61.0785 191.156 61.2622 190.694 61.2622Z" fill="#CCCCCC"/>
<path d="M256.484 61.2622H231.649C231.187 61.2622 230.744 61.0785 230.417 60.7517C230.09 60.4249 229.906 59.9816 229.906 59.5194C229.906 59.0572 230.09 58.6139 230.417 58.2871C230.744 57.9602 231.187 57.7766 231.649 57.7766H256.484C256.946 57.7766 257.389 57.9602 257.716 58.2871C258.043 58.6139 258.226 59.0572 258.226 59.5194C258.226 59.9816 258.043 60.4249 257.716 60.7517C257.389 61.0785 256.946 61.2622 256.484 61.2622Z" fill="#CCCCCC"/>
<path d="M317.916 61.2622H293.082C292.619 61.2622 292.176 61.0785 291.849 60.7517C291.522 60.4249 291.339 59.9816 291.339 59.5194C291.339 59.0572 291.522 58.6139 291.849 58.2871C292.176 57.9602 292.619 57.7766 293.082 57.7766H317.916C318.378 57.7766 318.822 57.9602 319.148 58.2871C319.475 58.6139 319.659 59.0572 319.659 59.5194C319.659 59.9816 319.475 60.4249 319.148 60.7517C318.822 61.0785 318.378 61.2622 317.916 61.2622Z" fill="#CCCCCC"/>
<path d="M64.9237 188.873C64.2863 188.81 63.6702 188.609 63.119 188.283C62.5679 187.956 62.0949 187.513 61.7335 186.984C61.3721 186.456 61.1311 185.854 61.0274 185.222C60.9236 184.59 60.9597 183.943 61.1331 183.326L49.9651 172.93L55.8699 171.432L66.8519 180.339C67.8684 180.699 68.7176 181.42 69.2384 182.364C69.7593 183.308 69.9158 184.411 69.6781 185.463C69.4404 186.514 68.8251 187.442 67.9489 188.071C67.0726 188.7 65.9962 188.985 64.9237 188.873Z" fill="#FFB8B8"/>
<path d="M80.3449 265.712H85.6865L88.2274 245.109H80.344L80.3449 265.712Z" fill="#FFB8B8"/>
<path d="M95.9883 270.672L79.2007 270.672L79.2004 264.186L89.5019 264.186C91.2221 264.186 92.8719 264.869 94.0883 266.085C95.3048 267.302 95.9882 268.951 95.9883 270.672Z" fill="#2F2E41"/>
<path d="M43.7212 261.856L48.8833 263.23L56.6391 243.974L49.021 241.946L43.7212 261.856Z" fill="#FFB8B8"/>
<path d="M57.562 270.673L41.3393 266.355L43.0077 260.087L52.9625 262.737C54.6249 263.18 56.0433 264.264 56.9059 265.753C57.7685 267.241 58.0045 269.011 57.562 270.673Z" fill="#2F2E41"/>
<path d="M87.1231 261.812H78.9725C78.4577 261.813 77.9608 261.622 77.5797 261.276C77.1986 260.93 76.9609 260.454 76.9134 259.941L71.9655 208.559C71.9292 208.182 71.7631 207.83 71.4955 207.562C71.228 207.294 70.8757 207.127 70.4988 207.09C70.122 207.054 69.7441 207.149 69.4297 207.36C69.1154 207.571 68.8842 207.885 68.7757 208.248L54.4095 256.261C54.2575 256.771 53.9144 257.203 53.4517 257.467C52.989 257.73 52.4425 257.805 51.926 257.675L44.3436 255.779C44.079 255.713 43.83 255.595 43.6111 255.432C43.3922 255.27 43.2076 255.065 43.068 254.831C42.9284 254.597 42.8365 254.337 42.7977 254.067C42.7588 253.797 42.7738 253.522 42.8417 253.258C42.9655 252.774 55.22 204.883 55.327 204.391C58.1036 183.928 61.4254 178.444 63.21 175.498C63.3577 175.255 63.4935 175.03 63.6157 174.819C63.7686 174.553 64.7103 171.924 65.3077 170.216C65.3853 169.938 65.5196 169.679 65.7022 169.456C65.8848 169.233 66.1118 169.05 66.3687 168.918C73.8672 165.083 82.6407 167.738 85.151 168.643C85.5672 168.79 85.9246 169.067 86.1697 169.434C93.7005 180.793 90.0048 246.766 89.1874 259.876C89.1534 260.4 88.9211 260.892 88.5378 261.251C88.1544 261.611 87.6487 261.811 87.1231 261.812Z" fill="#2F2E41"/>
<path d="M66.0892 131.664C71.9993 131.664 76.7903 126.873 76.7903 120.963C76.7903 115.053 71.9993 110.262 66.0892 110.262C60.1792 110.262 55.3882 115.053 55.3882 120.963C55.3882 126.873 60.1792 131.664 66.0892 131.664Z" fill="#FFB8B8"/>
<path d="M64.9553 172.293L64.8784 172.219C64.7342 172.079 50.4763 158.111 52.3215 145.195C53.1107 139.671 57.5805 136.141 65.2475 134.987C68.0642 134.568 70.9373 135.181 73.3386 136.711C75.7399 138.242 77.5081 140.588 78.3182 143.318L85.8992 169.235L64.9553 172.293Z" fill="#CCCCCC"/>
<path d="M57.6579 182.228L47.4983 172.133C46.8036 171.439 46.2992 170.577 46.0337 169.632C45.7682 168.686 45.7504 167.688 45.9822 166.734L50.9005 146.727C51.0478 146.128 51.3166 145.565 51.6903 145.074C52.0639 144.582 52.5344 144.173 53.0727 143.87C53.611 143.568 54.2056 143.38 54.8197 143.316C55.4338 143.253 56.0543 143.317 56.6429 143.503C57.7647 143.865 58.7017 144.649 59.2555 145.689C59.8092 146.73 59.9362 147.945 59.6096 149.077L54.4316 166.678L62.8048 175.669L57.6579 182.228Z" fill="#CCCCCC"/>
<path d="M112.151 147.774C111.882 148.356 111.489 148.871 111 149.284C110.51 149.698 109.936 149.999 109.318 150.166C108.7 150.333 108.052 150.363 107.421 150.253C106.79 150.143 106.191 149.896 105.666 149.53L92.103 156.559L92.7025 150.588L104.726 143.147C105.401 142.305 106.36 141.74 107.423 141.559C108.486 141.378 109.579 141.592 110.494 142.163C111.409 142.733 112.083 143.62 112.389 144.654C112.694 145.688 112.609 146.798 112.151 147.774Z" fill="#FFB8B8"/>
<path d="M104.185 152.22L90.9632 157.933C90.0831 158.31 89.1208 158.455 88.1688 158.353C87.2168 158.251 86.307 157.905 85.527 157.35L68.7141 145.303C68.2123 144.944 67.7896 144.485 67.4723 143.956C67.1549 143.426 66.9495 142.837 66.8689 142.225C66.7883 141.613 66.8342 140.991 67.0037 140.397C67.1732 139.804 67.4626 139.251 67.8542 138.774C68.6067 137.867 69.6829 137.288 70.8547 137.161C72.0265 137.033 73.2019 137.367 74.132 138.091L88.5484 149.437L100.007 145.004L104.185 152.22Z" fill="#CCCCCC"/>
<path d="M67.8631 124.392C69.1833 122.738 71.6497 122.649 73.463 121.558C75.8384 120.129 76.8204 116.935 76.0549 114.27C75.2895 111.606 73.032 109.53 70.4439 108.536C67.8557 107.543 64.9762 107.531 62.2459 108.011C58.1808 108.726 54.1786 110.623 51.6993 113.923C49.22 117.223 48.5891 122.056 50.836 125.518C51.8687 127.109 53.4629 128.423 53.8752 130.274C54.4164 132.705 52.7113 135.05 50.8845 136.743C48.8033 138.671 46.4156 140.286 44.5922 142.46C42.7689 144.634 41.553 147.604 42.385 150.317C43.0821 152.59 45.1107 154.264 47.3351 155.102C49.5596 155.941 51.9823 156.062 54.359 156.109C56.667 156.154 59.1184 156.098 61.0626 154.853C63.144 153.521 64.2553 150.994 64.3374 148.524C64.4195 146.054 63.5942 143.634 62.488 141.425C61.8287 140.107 61.0621 138.831 60.624 137.425C60.186 136.018 60.1101 134.423 60.8116 133.128C61.5491 131.766 63.0411 130.945 64.5604 130.647C64.6393 130.631 64.7228 130.617 64.8102 130.605C65.2425 130.549 65.6589 130.406 66.0342 130.184C66.4096 129.963 66.7361 129.667 66.994 129.316C67.252 128.964 67.436 128.564 67.5349 128.14C67.6338 127.715 67.6456 127.275 67.5696 126.846C67.3965 125.881 67.4114 124.958 67.8631 124.392Z" fill="#2F2E41"/>
<path d="M210.541 266.168H205.199L202.658 245.565L210.542 245.566L210.541 266.168Z" fill="#A0616A"/>
<path d="M201.384 264.642H211.686V271.128H194.898C194.898 270.277 195.066 269.433 195.392 268.646C195.718 267.859 196.195 267.144 196.798 266.542C197.4 265.94 198.115 265.462 198.902 265.136C199.689 264.81 200.532 264.642 201.384 264.642Z" fill="#2F2E41"/>
<path d="M249.298 260.118L244.44 262.337L233.567 244.653L240.738 241.377L249.298 260.118Z" fill="#A0616A"/>
<path d="M240.335 262.534L249.705 258.254L252.4 264.154L237.13 271.129C236.776 270.354 236.578 269.517 236.548 268.666C236.517 267.815 236.655 266.966 236.952 266.168C237.25 265.37 237.702 264.638 238.282 264.015C238.863 263.391 239.56 262.888 240.335 262.534Z" fill="#2F2E41"/>
<path d="M233.742 196.7C234.254 196.315 234.675 195.822 234.976 195.257C235.277 194.691 235.45 194.067 235.483 193.427C235.517 192.788 235.409 192.148 235.169 191.555C234.928 190.961 234.561 190.427 234.092 189.991L240.371 175.744L232.394 177.096L227.654 190.418C226.973 191.255 226.623 192.312 226.67 193.389C226.717 194.466 227.157 195.489 227.908 196.264C228.658 197.038 229.667 197.51 230.742 197.591C231.818 197.671 232.885 197.354 233.742 196.7Z" fill="#A0616A"/>
<path d="M210.2 260.736H205.098C204.603 260.734 204.127 260.546 203.764 260.209C203.402 259.872 203.18 259.411 203.142 258.917L200.359 184.606C200.339 184.322 200.38 184.036 200.482 183.769C200.583 183.502 200.741 183.26 200.946 183.061C201.15 182.861 201.396 182.709 201.665 182.614C201.934 182.52 202.221 182.485 202.505 182.513L232.017 185.647C232.495 185.694 232.94 185.915 233.266 186.267C233.592 186.62 233.778 187.081 233.787 187.561L234.405 220.341C234.409 220.519 234.443 220.695 234.507 220.861L246.613 252.254C246.706 252.496 246.751 252.755 246.743 253.015C246.736 253.274 246.677 253.53 246.57 253.767C246.463 254.004 246.31 254.217 246.119 254.394C245.929 254.571 245.705 254.709 245.461 254.798L240.29 256.704C239.841 256.869 239.347 256.864 238.901 256.691C238.455 256.517 238.088 256.186 237.869 255.761L222.998 226.844C222.917 226.687 222.858 226.52 222.822 226.346L220.281 214.106C220.208 213.751 220.01 213.434 219.724 213.212C219.437 212.99 219.081 212.876 218.719 212.893C218.357 212.909 218.013 213.054 217.748 213.301C217.483 213.549 217.314 213.882 217.273 214.242L212.148 258.998C212.094 259.477 211.865 259.918 211.506 260.239C211.147 260.559 210.682 260.736 210.2 260.736Z" fill="#2F2E41"/>
<path d="M212.741 126.502C218.651 126.502 223.442 121.711 223.442 115.801C223.442 109.891 218.651 105.1 212.741 105.1C206.831 105.1 202.04 109.891 202.04 115.801C202.04 121.711 206.831 126.502 212.741 126.502Z" fill="#A0616A"/>
<path d="M220.08 191.401C212.823 191.321 205.739 189.176 199.658 185.215L199.554 185.143L199.564 185.017L203.658 137.345C203.799 135.728 204.521 134.217 205.69 133.09C206.859 131.964 208.397 131.299 210.018 131.219C215.323 130.975 222.449 131.283 226.264 134.123C232.028 138.417 234.807 144.882 233.886 151.862C231.978 166.335 234.14 185.858 234.393 188.037L234.411 188.194L234.267 188.26C229.823 190.327 224.981 191.399 220.08 191.401Z" fill="#ACBF40"/>
<path d="M234.343 188.117C234.042 188.117 233.744 188.054 233.468 187.932C233.192 187.811 232.944 187.633 232.74 187.411L230.399 184.857C230.146 184.579 229.969 184.242 229.884 183.876C229.8 183.51 229.81 183.128 229.916 182.768L235.253 164.702L227.132 147.648C226.753 146.849 226.66 145.945 226.869 145.086C227.053 144.332 227.462 143.652 228.041 143.135C228.619 142.618 229.341 142.289 230.111 142.191C230.881 142.092 231.662 142.23 232.352 142.584C233.042 142.939 233.609 143.495 233.977 144.178L244.997 162.06C245.445 162.785 245.708 163.61 245.762 164.46C245.817 165.311 245.662 166.162 245.311 166.939L236.331 186.835C236.183 187.164 235.956 187.451 235.67 187.67C235.383 187.889 235.047 188.033 234.69 188.09C234.576 188.108 234.46 188.117 234.343 188.117Z" fill="#ACBF40"/>
<path d="M158.915 153.608C159.429 153.991 160.021 154.256 160.648 154.385C161.275 154.514 161.923 154.503 162.546 154.355C163.169 154.206 163.752 153.923 164.254 153.524C164.756 153.126 165.164 152.623 165.45 152.05L180.89 154.052L177.342 146.781L163.223 145.994C162.229 145.578 161.116 145.54 160.096 145.889C159.075 146.238 158.218 146.949 157.687 147.888C157.156 148.826 156.988 149.927 157.214 150.981C157.441 152.036 158.046 152.971 158.915 153.608Z" fill="#A0616A"/>
<path d="M192.948 157.579C192.679 157.579 192.41 157.561 192.144 157.524L167.854 154.155C167.457 154.1 167.08 153.948 166.756 153.711C166.433 153.475 166.174 153.161 166.002 152.799C165.946 152.683 165.9 152.562 165.863 152.438C165.769 152.116 165.743 151.779 165.786 151.446C165.829 151.114 165.941 150.794 166.114 150.507L168.124 147.175C168.34 146.818 168.644 146.524 169.007 146.319C169.37 146.114 169.779 146.006 170.196 146.004H170.199L191.372 146.029L207.185 131.861C207.921 131.204 208.86 130.819 209.846 130.772C210.711 130.732 211.569 130.955 212.305 131.412C213.041 131.869 213.621 132.539 213.969 133.332C214.316 134.125 214.416 135.006 214.253 135.857C214.091 136.708 213.674 137.489 213.058 138.099L197.279 155.647C196.733 156.255 196.065 156.742 195.319 157.074C194.573 157.407 193.765 157.579 192.948 157.579Z" fill="#ACBF40"/>
<path d="M213.958 125.321C214.936 123.058 215.763 120.044 213.888 118.444C212.8 117.516 211.233 117.514 209.807 117.398C205.791 117.073 201.657 115.225 199.694 111.707C197.732 108.188 198.828 102.956 202.531 101.368C205.027 100.298 207.889 101.027 210.502 101.768L218.347 103.993C220.678 104.654 223.125 105.383 224.803 107.131C227.48 109.918 227.28 114.63 225.154 117.856C223.028 121.083 219.827 124.449 216.162 125.674L213.958 125.321Z" fill="#2F2E41"/>
<path d="M322.19 271.27H0.520277C0.452024 271.271 0.384406 271.257 0.321292 271.231C0.258177 271.205 0.200814 271.167 0.152482 271.119C0.10415 271.071 0.0658012 271.014 0.0396362 270.951C0.0134713 270.888 0 270.82 0 270.752C0 270.683 0.0134713 270.616 0.0396362 270.553C0.0658012 270.49 0.10415 270.433 0.152482 270.384C0.200814 270.336 0.258177 270.298 0.321292 270.272C0.384406 270.246 0.452024 270.233 0.520277 270.233H322.19C322.258 270.233 322.326 270.246 322.389 270.272C322.452 270.298 322.509 270.336 322.557 270.384C322.606 270.433 322.644 270.49 322.67 270.553C322.697 270.616 322.71 270.683 322.71 270.752C322.71 270.82 322.697 270.888 322.67 270.951C322.644 271.014 322.606 271.071 322.557 271.119C322.509 271.167 322.452 271.205 322.389 271.231C322.326 271.257 322.258 271.271 322.19 271.27Z" fill="#3F3D56"/>
</svg>
