<svg width="169" height="185" viewBox="0 0 169 185" fill="none" xmlns="http://www.w3.org/2000/svg">
<path d="M136.143 59.1052H130.675L131.971 65.1035H137.618L136.143 59.1052Z" fill="#ED9DA0"/>
<path d="M169 183.612C169 183.655 168.992 183.697 168.976 183.737C168.959 183.776 168.935 183.812 168.905 183.842C168.875 183.872 168.839 183.896 168.8 183.912C168.761 183.929 168.718 183.937 168.676 183.937H99.6166C99.5306 183.937 99.4481 183.903 99.3872 183.842C99.3264 183.781 99.2922 183.699 99.2922 183.612C99.2922 183.526 99.3264 183.444 99.3872 183.383C99.4481 183.322 99.5306 183.288 99.6166 183.288H168.675C168.718 183.288 168.76 183.296 168.8 183.312C168.839 183.329 168.875 183.353 168.905 183.383C168.935 183.413 168.959 183.449 168.976 183.488C168.992 183.528 169 183.57 169 183.612Z" fill="#D6D6E3"/>
<path d="M9.95089 40.0789H32.308C33.2114 40.0777 34.0773 39.7183 34.7161 39.0796C35.3549 38.4408 35.7142 37.5748 35.7155 36.6715V14.3132C35.7142 13.4099 35.3549 12.5439 34.7161 11.9051C34.0773 11.2664 33.2114 10.907 32.308 10.9058H9.95089C9.04755 10.907 8.18156 11.2664 7.54281 11.9051C6.90406 12.5439 6.54468 13.4099 6.54346 14.3132V36.671C6.54455 37.5744 6.90388 38.4405 7.54265 39.0794C8.18142 39.7183 9.04747 40.0777 9.95089 40.0789ZM32.308 11.451C33.0672 11.451 33.7953 11.7525 34.3321 12.2893C34.869 12.826 35.1706 13.554 35.1707 14.3132V36.671C35.1707 37.4303 34.8691 38.1584 34.3323 38.6953C33.7954 39.2321 33.0673 39.5337 32.308 39.5337H16.6474C14.1121 39.5337 11.6807 38.5266 9.88802 36.7339C8.09531 34.9412 7.08819 32.5098 7.08819 29.9745V14.3132C7.08819 13.9373 7.16223 13.565 7.30609 13.2177C7.44996 12.8704 7.66082 12.5548 7.92665 12.289C8.19247 12.0231 8.50806 11.8123 8.85538 11.6684C9.20269 11.5245 9.57495 11.4505 9.95089 11.4505L32.308 11.451Z" fill="#F2F2F2"/>
<path d="M9.95089 40.0789H32.308C33.2114 40.0777 34.0773 39.7183 34.7161 39.0796C35.3549 38.4408 35.7142 37.5748 35.7155 36.6715V14.3132C35.7142 13.4099 35.3549 12.5439 34.7161 11.9051C34.0773 11.2664 33.2114 10.907 32.308 10.9058H9.95089C9.04755 10.907 8.18156 11.2664 7.54281 11.9051C6.90406 12.5439 6.54468 13.4099 6.54346 14.3132V36.671C6.54455 37.5744 6.90388 38.4405 7.54265 39.0794C8.18142 39.7183 9.04747 40.0777 9.95089 40.0789Z" fill="#ACBF40"/>
<path d="M21.2658 5.99847C22.9223 5.99847 24.2651 4.65566 24.2651 2.99923C24.2651 1.3428 22.9223 0 21.2658 0C19.6094 0 18.2666 1.3428 18.2666 2.99923C18.2666 4.65566 19.6094 5.99847 21.2658 5.99847Z" fill="#ACBF40"/>
<path d="M54.5212 71.7064H76.8783C77.7817 71.7052 78.6477 71.3458 79.2864 70.707C79.9252 70.0683 80.2846 69.2023 80.2858 68.299V45.9414C80.2846 45.038 79.9252 44.1721 79.2864 43.5333C78.6477 42.8945 77.7817 42.5352 76.8783 42.5339H54.5212C53.6179 42.5352 52.7519 42.8945 52.1131 43.5333C51.4744 44.1721 51.115 45.038 51.1138 45.9414V68.2985C51.1149 69.2019 51.4742 70.068 52.113 70.7069C52.7517 71.3457 53.6178 71.7052 54.5212 71.7064ZM76.8783 43.0784C77.6376 43.0784 78.3657 43.38 78.9026 43.9169C79.4394 44.4538 79.7411 45.1819 79.7411 45.9411V68.2983C79.7411 69.0575 79.4394 69.7857 78.9026 70.3225C78.3657 70.8594 77.6376 71.161 76.8783 71.161C73.5664 71.161 70.2869 70.5087 67.2271 69.2413C64.1673 67.9739 61.3871 66.1163 59.0452 63.7744C56.7033 61.4326 54.8455 58.6524 53.5781 55.5926C52.3107 52.5328 51.6583 49.2533 51.6583 45.9414C51.6583 45.1821 51.9599 44.454 52.4967 43.9171C53.0336 43.3803 53.7617 43.0787 54.521 43.0787H76.8781L76.8783 43.0784Z" fill="white"/>
<path d="M65.8361 37.6254C67.4926 37.6254 68.8354 36.2826 68.8354 34.6262C68.8354 32.9698 67.4926 31.627 65.8361 31.627C64.1797 31.627 62.8369 32.9698 62.8369 34.6262C62.8369 36.2826 64.1797 37.6254 65.8361 37.6254Z" fill="#D6D6E3"/>
<path d="M66.4776 55.6137C65.9691 55.7337 65.4339 55.649 64.9873 55.3778C64.5407 55.1067 64.2186 54.6709 64.0905 54.1644C63.87 53.0887 64.8222 51.9198 65.9174 51.912C66.1903 51.9217 66.4582 51.9879 66.7042 52.1063C66.9502 52.2247 67.169 52.3929 67.3468 52.6001C67.5245 52.8073 67.6574 53.0491 67.7371 53.3103C67.8167 53.5714 67.8414 53.8462 67.8095 54.1174C67.6944 54.8113 67.2664 55.4159 66.8775 55.9823C66.4442 56.6145 65.9911 57.2331 65.5242 57.8409C64.4679 59.2157 63.3404 60.5347 62.2162 61.8534C62.1616 61.9116 62.1249 61.9842 62.1105 62.0627C62.0962 62.1412 62.1048 62.2222 62.1353 62.2959C62.1658 62.3696 62.217 62.4329 62.2827 62.4783C62.3483 62.5236 62.4256 62.549 62.5054 62.5515L68.9029 63.1367C69.4269 63.1846 69.4236 62.3664 68.9029 62.3187L62.5054 61.7335L62.7946 62.4315C64.0334 60.9781 65.2707 59.5223 66.4242 57.9996C66.99 57.2772 67.5185 56.5262 68.0075 55.7497C68.4251 55.0616 68.7417 54.2763 68.6213 53.4587C68.4141 52.0488 67.0117 50.9163 65.5822 51.1219C64.878 51.2451 64.2472 51.632 63.8179 52.2037C63.3887 52.7754 63.1933 53.4892 63.2714 54.1998C63.4961 55.7587 65.1996 56.7994 66.6952 56.4018C67.2033 56.2666 66.9878 55.4774 66.4778 55.613L66.4776 55.6137Z" fill="#A6A6A6"/>
<path d="M3.40743 99.0489H25.7646C26.6679 99.0477 27.5339 98.6883 28.1727 98.0495C28.8114 97.4108 29.1708 96.5448 29.172 95.6415V73.2832C29.1708 72.3798 28.8114 71.5138 28.1727 70.8751C27.5339 70.2363 26.6679 69.877 25.7646 69.8757H3.40743C2.5041 69.877 1.63812 70.2363 0.999368 70.8751C0.360614 71.5138 0.00121825 72.3798 0 73.2832V95.641C0.00109644 96.5444 0.360432 97.4105 0.999199 98.0494C1.63797 98.6882 2.50402 99.0477 3.40743 99.0489ZM25.7646 70.4209C26.5237 70.4209 27.2518 70.7225 27.7887 71.2592C28.3255 71.796 28.6272 72.524 28.6273 73.2832V95.641C28.6273 96.4002 28.3257 97.1284 27.7888 97.6652C27.252 98.2021 26.5238 98.5037 25.7646 98.5037C22.4526 98.5037 19.173 97.8514 16.1131 96.584C13.0533 95.3165 10.273 93.4588 7.93106 91.1168C5.58915 88.7749 3.73147 85.9946 2.46408 82.9346C1.19669 79.8747 0.544406 76.5952 0.544497 73.2832C0.544497 72.5239 0.846105 71.7958 1.38297 71.2589C1.91983 70.7221 2.64797 70.4205 3.40721 70.4205L25.7646 70.4209Z" fill="white"/>
<path d="M14.7226 64.9682C16.3791 64.9682 17.7219 63.6254 17.7219 61.969C17.7219 60.3125 16.3791 58.9697 14.7226 58.9697C13.0662 58.9697 11.7234 60.3125 11.7234 61.969C11.7234 63.6254 13.0662 64.9682 14.7226 64.9682Z" fill="#D6D6E3"/>
<path d="M12.1021 79.6807C13.5014 78.9691 15.3628 79.4899 15.8742 81.0598C15.9968 81.3942 16.0324 81.7543 15.9776 82.1063C15.9227 82.4582 15.7792 82.7904 15.5606 83.0716C15.342 83.3529 15.0555 83.5739 14.728 83.7138C14.4004 83.8538 14.0427 83.9082 13.6884 83.8719V84.6899C14.6174 84.7232 15.5005 85.102 16.165 85.7522C16.465 86.0594 16.6815 86.4382 16.7941 86.8526C16.9067 87.267 16.9115 87.7033 16.8082 88.1201C16.6909 88.521 16.4515 88.8753 16.1234 89.1338C15.7953 89.3922 15.3948 89.542 14.9776 89.5623C14.5604 89.5826 14.1473 89.4723 13.7957 89.2468C13.4441 89.0213 13.1715 88.6919 13.0159 88.3043C12.8213 87.8224 12.0298 88.0331 12.2271 88.5216C12.9235 90.2458 15.0474 90.9508 16.5732 89.8049C18.13 88.6356 17.9718 86.3344 16.6294 85.0608C15.818 84.3335 14.7775 83.9132 13.6886 83.873C13.1591 83.8387 13.1731 84.6395 13.6886 84.691C14.1717 84.7276 14.6562 84.6425 15.0979 84.4433C15.5395 84.2442 15.9241 83.9374 16.2165 83.5512C16.5059 83.1703 16.6978 82.7246 16.7757 82.2527C16.8535 81.7808 16.8149 81.297 16.6632 80.8434C15.9856 78.7527 13.5691 78.0198 11.6902 78.9755C11.221 79.2143 11.6345 79.9195 12.103 79.6819L12.1021 79.6807Z" fill="#A6A6A6"/>
<path d="M133.733 138.573H156.09C156.993 138.572 157.859 138.212 158.498 137.574C159.137 136.935 159.496 136.069 159.497 135.166V112.807C159.496 111.904 159.137 111.038 158.498 110.399C157.859 109.761 156.993 109.401 156.09 109.4H133.733C132.83 109.401 131.964 109.761 131.325 110.399C130.686 111.038 130.327 111.904 130.325 112.807V135.165C130.327 136.069 130.686 136.935 131.325 137.574C131.963 138.212 132.829 138.572 133.733 138.573Z" fill="#D6D6E3"/>
<path d="M142.17 113.095C141.81 112.91 141.495 112.648 141.248 112.327C141 112.007 140.825 111.636 140.736 111.241C140.647 110.846 140.646 110.436 140.733 110.041C140.819 109.645 140.991 109.273 141.237 108.951L137.531 84.0437L143.01 84.0787L145.296 108.529C145.809 108.978 146.141 109.6 146.227 110.277C146.313 110.953 146.147 111.638 145.762 112.201C145.377 112.764 144.798 113.166 144.136 113.331C143.474 113.496 142.775 113.412 142.17 113.095Z" fill="#ED9DA0"/>
<path d="M141.274 66.659C141.274 66.659 142.911 66.2135 143.149 69.8007C143.34 72.6727 146.201 90.1698 145.401 94.0847C145.91 94.3189 146.326 94.7157 146.585 95.2127C146.843 95.7096 146.929 96.2785 146.828 96.8295L138.556 96.0861C137.422 94.585 137.416 92.9034 138.066 92.5523L137.402 87.3965L133.562 70.6015L140.085 66.9599L141.275 66.659H141.274Z" fill="#F2F2F2"/>
<path d="M136.731 176.166H132.515L130.51 159.901H136.733L136.731 176.166Z" fill="#ED9DA0"/>
<path d="M131.112 176.546V173.687L132.22 173.754L136.733 174.022L137.777 174.086L138.575 183.66L138.618 184.173H135.625L135.529 183.663L135.094 181.347L133.971 183.663L133.725 184.173H125.786C125.314 184.17 124.862 183.981 124.528 183.647C124.195 183.312 124.006 182.86 124.004 182.387C123.669 180.822 130.27 177.44 131.112 176.545L131.112 176.546Z" fill="#2F2E41"/>
<path d="M152.413 176.084L147.613 176.941L143.141 163.121L147.959 161.645L152.413 176.084Z" fill="#ED9DA0"/>
<path d="M146.633 177.15L145.925 174.338L146.926 174.1L150.997 173.124L151.941 172.9L155.022 182.1L155.187 182.593L152.529 183.415L152.317 182.94L151.357 180.78L150.934 183.368L150.842 183.937L142.54 183.088C142.119 183.218 141.333 182.94 141.333 182.94C141.333 182.94 141.459 181.902 141.333 181.401C143.184 179.424 146.108 178.261 146.633 177.15L146.633 177.15Z" fill="#2F2E41"/>
<path d="M120.279 108.601L120.198 107.751L123.695 98.1648L138.595 101.038C138.595 101.038 146.275 110.498 144.567 116.76C144.103 118.458 143.114 138.474 143.412 139.118C150.275 153.942 151.028 171.604 151.028 171.604C151.028 171.604 149.178 170.666 145.462 171.604C144.492 171.848 134.131 134.217 134.131 134.217C134.131 134.217 134.456 136.292 134.908 139.447C136.308 149.196 138.505 168.821 136.553 169.837C134.994 170.644 133.248 171.022 131.495 170.932C131.495 170.932 123.437 146.719 125.145 141.027" fill="#2F2E41"/>
<path d="M127.598 67.4119L131.455 62.7758L137.256 62.4626L140.411 67.1394L142.159 72.0693C144.115 76.8221 144.563 82.0617 143.441 87.0774L140.756 99.0774C140.756 99.0774 140.341 100.491 141.426 100.661C142.51 100.831 142.379 102.916 142.379 102.916C142.379 102.916 144.835 106.089 142.379 109.247C139.924 112.405 122.739 99.416 122.739 99.416L122.645 84.6163C122.645 84.6163 117.174 77.2693 123.065 73.0616L127.596 67.414L127.598 67.4119Z" fill="#F2F2F2"/>
<path d="M116.011 119.488H138.368C139.271 119.486 140.137 119.127 140.776 118.488C141.415 117.85 141.774 116.984 141.775 116.08V93.7219C141.774 92.8186 141.415 91.9526 140.776 91.3138C140.137 90.6751 139.271 90.3157 138.368 90.3145H116.011C115.107 90.3157 114.241 90.6751 113.603 91.3138C112.964 91.9526 112.604 92.8186 112.603 93.7219V116.08C112.604 116.983 112.964 117.849 113.602 118.488C114.241 119.127 115.107 119.486 116.011 119.488Z" fill="#ACBF40"/>
<path d="M119.406 108.493C119.134 108.193 118.93 107.838 118.809 107.451C118.689 107.064 118.654 106.656 118.709 106.254C118.763 105.853 118.905 105.468 119.124 105.128C119.343 104.787 119.634 104.499 119.977 104.283L125.19 79.6477L130.312 81.5911L123.927 105.303C124.252 105.903 124.345 106.601 124.19 107.265C124.034 107.929 123.641 108.513 123.083 108.906C122.526 109.299 121.844 109.474 121.166 109.398C120.488 109.322 119.862 109 119.406 108.493L119.406 108.493Z" fill="#ED9DA0"/>
<path d="M129.747 67.2828C129.747 67.2828 128.201 66.5831 127.397 70.087C126.752 72.8922 121.15 89.7132 121.319 93.7056C120.779 93.8562 120.305 94.182 119.971 94.6317C119.637 95.0814 119.463 95.6294 119.474 96.1894L127.76 96.7686C129.118 95.4667 129.391 93.8074 128.805 93.3573L130.278 88.3723L136.736 72.4L130.873 67.7691L129.747 67.283L129.747 67.2828Z" fill="#F2F2F2"/>
<path d="M132.889 60.3516C136.935 60.3516 140.215 57.0715 140.215 53.0252C140.215 48.9789 136.935 45.6987 132.889 45.6987C128.842 45.6987 125.562 48.9789 125.562 53.0252C125.562 57.0715 128.842 60.3516 132.889 60.3516Z" fill="#ED9DA0"/>
<path d="M125.993 52.1013C125.974 52.1013 125.927 52.1013 125.84 52.1041C125.587 52.1204 125.93 52.1066 125.993 52.1013Z" fill="#2F2E41"/>
<path d="M137.035 40.9415C136.629 40.9424 136.224 40.9854 135.826 41.0699C135.113 40.6985 134.321 40.5037 133.517 40.5017H133.308C129.268 40.5017 125.993 44.4053 125.993 49.2204H127.347L127.565 47.4437L127.886 49.2204H129.014C128.662 50.6497 128.486 52.1166 128.489 53.5886V62.4629H130.535L131.72 59.1749L131.424 62.4629H144.579L145.657 59.4737L145.387 62.4629H146.868V55.4949C146.869 47.4573 142.466 40.9415 137.035 40.9415Z" fill="#2F2E41"/>
</svg>
